<svg width="113" height="25" viewBox="0 0 113 25" fill="none" xmlns="http://www.w3.org/2000/svg">
<path d="M70.7888 2.80141V6.23794H68.6347V8.4916H70.7888V16.1491C70.7888 18.7638 71.9716 19.8097 74.9475 19.8097C75.4704 19.8097 75.9685 19.7475 76.4042 19.6727V17.444C76.0307 17.4813 75.7941 17.5062 75.3832 17.5062C74.051 17.5062 73.4658 16.8837 73.4658 15.4643V8.4916H76.4042V6.23794H73.4658V2.80141H70.7888Z" fill="#212121"/>
<path d="M83.985 19.9965C87.9445 19.9965 90.3725 17.3444 90.3725 12.9491C90.3725 8.57876 87.932 5.9142 83.985 5.9142C80.0255 5.9142 77.5851 8.57876 77.5851 12.9491C77.5851 17.3444 80.0131 19.9965 83.985 19.9965ZM83.985 17.6183C81.6566 17.6183 80.3493 15.9125 80.3493 12.9491C80.3493 10.0106 81.6566 8.29238 83.985 8.29238C86.3009 8.29238 87.6208 10.0106 87.6208 12.9491C87.6208 15.9 86.3009 17.6183 83.985 17.6183Z" fill="#212121"/>
<path d="M92.4498 19.735H95.1268V11.7289C95.1268 9.82387 96.5587 8.5414 98.5882 8.5414C99.0614 8.5414 99.8583 8.62856 100.082 8.70327V6.06362C99.796 5.98891 99.2855 5.95156 98.8871 5.95156C97.119 5.95156 95.6124 6.92275 95.2264 8.25502H95.0272V6.17568H92.4498V19.735Z" fill="#212121"/>
<path d="M106.729 8.19277C108.709 8.19277 110.004 9.57485 110.066 11.704H103.218C103.367 9.5873 104.75 8.19277 106.729 8.19277ZM110.054 16.0744C109.556 17.1327 108.448 17.7179 106.829 17.7179C104.687 17.7179 103.305 16.2113 103.218 13.8331V13.6837H112.793V12.7499C112.793 8.4916 110.514 5.9142 106.742 5.9142C102.919 5.9142 100.491 8.66591 100.491 12.9989C100.491 17.3319 102.869 19.9965 106.754 19.9965C109.855 19.9965 112.021 18.5023 112.631 16.0744H110.054Z" fill="#212121"/>
<path d="M53.2334 14.7278C53.4399 18.0573 56.2145 20.1867 60.3442 20.1867C64.7578 20.1867 67.5195 17.9541 67.5195 14.3922C67.5195 11.5918 65.9451 10.0431 62.1251 9.15268L60.0732 8.64937C57.647 8.08154 56.6662 7.32013 56.6662 5.99089C56.6662 4.3132 58.189 3.21625 60.4733 3.21625C62.6413 3.21625 64.1383 4.28739 64.4094 6.00379H67.2227C67.0549 2.86781 64.2932 0.661011 60.512 0.661011C56.4468 0.661011 53.7367 2.86781 53.7367 6.18447C53.7367 8.92039 55.2724 10.5464 58.6407 11.3337L61.0411 11.9144C63.506 12.4951 64.59 13.3469 64.59 14.7665C64.59 16.4183 62.8865 17.6185 60.5636 17.6185C58.0729 17.6185 56.3436 16.4958 56.0984 14.7278H53.2334Z" fill="#212121"/>
<path d="M25.5024 5.95156C23.6596 5.95156 22.0659 6.87294 21.2441 8.41689H21.0449V6.17568H18.4675V24.2423H21.1445V17.6806H21.3562C22.0659 19.1124 23.5974 19.9591 25.5273 19.9591C28.9514 19.9591 31.1303 17.2572 31.1303 12.9491C31.1303 8.64101 28.9514 5.95156 25.5024 5.95156ZM24.7429 17.556C22.5017 17.556 21.0947 15.788 21.0947 12.9616C21.0947 10.1227 22.5017 8.35463 24.7553 8.35463C27.0214 8.35463 28.3786 10.0853 28.3786 12.9491C28.3786 15.8253 27.0214 17.556 24.7429 17.556Z" fill="#212121"/>
<path d="M40.4976 5.95156C38.6548 5.95156 37.0611 6.87294 36.2393 8.41689H36.0401V6.17568H33.4627V24.2423H36.1397V17.6806H36.3513C37.0611 19.1124 38.5926 19.9591 40.5225 19.9591C43.9466 19.9591 46.1255 17.2572 46.1255 12.9491C46.1255 8.64101 43.9466 5.95156 40.4976 5.95156ZM39.7381 17.556C37.4969 17.556 36.0899 15.788 36.0899 12.9616C36.0899 10.1227 37.4969 8.35463 39.7505 8.35463C42.0166 8.35463 43.3738 10.0853 43.3738 12.9491C43.3738 15.8253 42.0166 17.556 39.7381 17.556Z" fill="#212121"/>
<path d="M13.6645 19.735H16.7359L10.0123 1.1127H6.90211L0.178467 19.735H3.14668L4.86308 14.7923H11.961L13.6645 19.735ZM8.30879 4.49388H8.52818L11.2254 12.3661H5.59868L8.30879 4.49388Z" fill="#212121"/>
</svg>
