<svg width="105" height="11" viewBox="0 0 105 11" fill="none" xmlns="http://www.w3.org/2000/svg">
<path d="M0.976685 1.06641V10.0499H4.22021C6.89722 10.0499 8.44739 8.40015 8.44739 5.53015C8.44739 2.70374 6.88477 1.06641 4.22021 1.06641H0.976685ZM2.37122 2.33643H4.06458C5.92603 2.33643 7.02795 3.51929 7.02795 5.54883C7.02795 7.6095 5.9447 8.77991 4.06458 8.77991H2.37122V2.33643Z" fill="#616161"/>
<path d="M13.195 10.1807C15.1748 10.1807 16.3887 8.85461 16.3887 6.65698C16.3887 4.4718 15.1685 3.13953 13.195 3.13953C11.2153 3.13953 9.99507 4.4718 9.99507 6.65698C9.99507 8.85461 11.2091 10.1807 13.195 10.1807ZM13.195 8.99158C12.0308 8.99158 11.3771 8.13867 11.3771 6.65698C11.3771 5.18774 12.0308 4.32861 13.195 4.32861C14.353 4.32861 15.0129 5.18774 15.0129 6.65698C15.0129 8.13245 14.353 8.99158 13.195 8.99158Z" fill="#616161"/>
<path d="M26.727 3.27026H25.3885L24.1807 8.44373H24.0749L22.6803 3.27026H21.3979L20.0033 8.44373H19.9037L18.6897 3.27026H17.3325L19.2002 10.0499H20.5761L21.9706 5.05701H22.0764L23.4772 10.0499H24.8655L26.727 3.27026Z" fill="#616161"/>
<path d="M28.2684 10.0499H29.6069V6.08423C29.6069 5.02588 30.2357 4.36597 31.2256 4.36597C32.2154 4.36597 32.6886 4.90759 32.6886 5.99707V10.0499H34.0271V5.66089C34.0271 4.04846 33.1928 3.13953 31.68 3.13953C30.659 3.13953 29.9867 3.59399 29.6567 4.34729H29.5571V3.27026H28.2684V10.0499Z" fill="#616161"/>
<path d="M36.1351 10.0499H37.4736V0.62439H36.1351V10.0499Z" fill="#616161"/>
<path d="M42.5076 10.1807C44.4873 10.1807 45.7013 8.85461 45.7013 6.65698C45.7013 4.4718 44.4811 3.13953 42.5076 3.13953C40.5278 3.13953 39.3076 4.4718 39.3076 6.65698C39.3076 8.85461 40.5216 10.1807 42.5076 10.1807ZM42.5076 8.99158C41.3434 8.99158 40.6897 8.13867 40.6897 6.65698C40.6897 5.18774 41.3434 4.32861 42.5076 4.32861C43.6655 4.32861 44.3254 5.18774 44.3254 6.65698C44.3254 8.13245 43.6655 8.99158 42.5076 8.99158Z" fill="#616161"/>
<path d="M49.6894 9.03516C48.961 9.03516 48.4318 8.6803 48.4318 8.07019C48.4318 7.47253 48.8552 7.15503 49.789 7.09277L51.445 6.98694V7.55347C51.445 8.39392 50.6979 9.03516 49.6894 9.03516ZM49.347 10.162C50.2373 10.162 50.9781 9.776 51.3828 9.09741H51.4886V10.0499H52.7773V5.41809C52.7773 3.98621 51.8186 3.13953 50.119 3.13953C48.5812 3.13953 47.4855 3.8866 47.3486 5.05078H48.6435C48.7929 4.57141 49.3096 4.29749 50.0567 4.29749C50.9719 4.29749 51.445 4.70215 51.445 5.41809V6.0033L49.6085 6.10913C47.996 6.20874 47.0871 6.91223 47.0871 8.13245C47.0871 9.37134 48.0396 10.162 49.347 10.162Z" fill="#616161"/>
<path d="M57.3195 10.162C58.2533 10.162 59.044 9.71997 59.4486 8.97913H59.5545V10.0499H60.8369V0.62439H59.4984V4.34729H59.3988C59.0315 3.60022 58.2471 3.1582 57.3195 3.1582C55.6074 3.1582 54.5055 4.51538 54.5055 6.65698C54.5055 8.80481 55.595 10.162 57.3195 10.162ZM57.6992 4.35974C58.8198 4.35974 59.5233 5.25 59.5233 6.66321C59.5233 8.08264 58.8261 8.96045 57.6992 8.96045C56.5662 8.96045 55.8876 8.09509 55.8876 6.65698C55.8876 5.23132 56.5724 4.35974 57.6992 4.35974Z" fill="#616161"/>
<path d="M69.5166 10.1807C71.4964 10.1807 72.7104 8.85461 72.7104 6.65698C72.7104 4.4718 71.4902 3.13953 69.5166 3.13953C67.5369 3.13953 66.3167 4.4718 66.3167 6.65698C66.3167 8.85461 67.5307 10.1807 69.5166 10.1807ZM69.5166 8.99158C68.3525 8.99158 67.6988 8.13867 67.6988 6.65698C67.6988 5.18774 68.3525 4.32861 69.5166 4.32861C70.6746 4.32861 71.3345 5.18774 71.3345 6.65698C71.3345 8.13245 70.6746 8.99158 69.5166 8.99158Z" fill="#616161"/>
<path d="M74.4822 10.0499H75.8207V6.08423C75.8207 5.02588 76.4495 4.36597 77.4393 4.36597C78.4292 4.36597 78.9023 4.90759 78.9023 5.99707V10.0499H80.2408V5.66089C80.2408 4.04846 79.4066 3.13953 77.8938 3.13953C76.8728 3.13953 76.2004 3.59399 75.8705 4.34729H75.7709V3.27026H74.4822V10.0499Z" fill="#616161"/>
<path d="M86.4054 1.58313V3.30139H85.3284V4.42822H86.4054V8.25696C86.4054 9.56433 86.9968 10.0873 88.4848 10.0873C88.7462 10.0873 88.9953 10.0562 89.2132 10.0188V8.90442C89.0264 8.9231 88.9081 8.93555 88.7027 8.93555C88.0365 8.93555 87.7439 8.62427 87.7439 7.91455V4.42822H89.2132V3.30139H87.7439V1.58313H86.4054Z" fill="#616161"/>
<path d="M91.0099 10.0499H92.3484V6.09045C92.3484 5.06323 92.9585 4.37219 94.0542 4.37219C95.0005 4.37219 95.5047 4.92004 95.5047 6.0033V10.0499H96.8432V5.67334C96.8432 4.06091 95.953 3.14575 94.5086 3.14575C93.4876 3.14575 92.7717 3.60022 92.4417 4.35974H92.3359V0.62439H91.0099V10.0499Z" fill="#616161"/>
<path d="M101.672 4.27881C102.662 4.27881 103.309 4.96985 103.34 6.03442H99.9162C99.9909 4.97607 100.682 4.27881 101.672 4.27881ZM103.334 8.2196C103.085 8.74878 102.531 9.04138 101.722 9.04138C100.651 9.04138 99.9598 8.28809 99.9162 7.099V7.02429H104.704V6.55737C104.704 4.42822 103.564 3.13953 101.678 3.13953C99.7668 3.13953 98.5528 4.51538 98.5528 6.68188C98.5528 8.84839 99.7419 10.1807 101.684 10.1807C103.234 10.1807 104.318 9.43359 104.623 8.2196H103.334Z" fill="#616161"/>
</svg>
