<svg width="60" height="10" viewBox="0 0 60 10" fill="none" xmlns="http://www.w3.org/2000/svg">
<path d="M10.1271 5.36442C10.1271 6.62142 9.75507 7.62192 9.00957 8.36892C8.16357 9.25692 7.05958 9.70092 5.70358 9.70092C4.40458 9.70092 3.29908 9.25091 2.39158 8.35091C1.48258 7.44941 1.02808 6.33341 1.02808 5.00141C1.02808 3.66791 1.48258 2.55191 2.39158 1.65191C3.29908 0.750415 4.40458 0.300416 5.70358 0.300416C6.34858 0.300416 6.96508 0.426415 7.55008 0.676915C8.13658 0.928915 8.60608 1.26342 8.95708 1.68192L8.16657 2.47392C7.57107 1.76142 6.75057 1.40592 5.70207 1.40592C4.75407 1.40592 3.93507 1.73892 3.24357 2.40492C2.55207 3.07092 2.20708 3.93642 2.20708 4.99992C2.20708 6.06342 2.55207 6.92891 3.24357 7.59491C3.93507 8.26091 4.75407 8.59391 5.70207 8.59391C6.70707 8.59391 7.54558 8.25941 8.21608 7.58891C8.65108 7.15241 8.90307 6.54491 8.97057 5.76641H5.70207V4.68492H10.0626C10.1076 4.92042 10.1271 5.14692 10.1271 5.36442Z" fill="#616161"/>
<path d="M17.0422 1.6055H12.9442V4.4585H16.6402V5.54H12.9442V8.393H17.0422V9.5H11.7877V0.5H17.0422V1.6055Z" fill="#616161"/>
<path d="M21.9185 9.5H20.7621V1.6055H18.248V0.5H24.4325V1.6055H21.9185V9.5Z" fill="#616161"/>
<path d="M28.907 9.5V0.5H30.0635V9.5H28.907Z" fill="#616161"/>
<path d="M35.1922 9.5H34.0357V1.6055H31.5217V0.5H37.7062V1.6055H35.1922V9.5Z" fill="#616161"/>
<path d="M49.4134 8.33749C48.5284 9.24649 47.4289 9.70099 46.1134 9.70099C44.7979 9.70099 43.6984 9.24649 42.8149 8.33749C41.9299 7.42849 41.4889 6.31549 41.4889 4.99999C41.4889 3.68449 41.9299 2.57149 42.8149 1.66249C43.6984 0.753485 44.7979 0.297485 46.1134 0.297485C47.4214 0.297485 48.5194 0.754985 49.4074 1.66848C50.2954 2.58198 50.7394 3.69199 50.7394 4.99999C50.7394 6.31549 50.2969 7.42849 49.4134 8.33749ZM43.6684 7.58299C44.3344 8.25799 45.1489 8.59399 46.1134 8.59399C47.0779 8.59399 47.8939 8.25649 48.5584 7.58299C49.2244 6.90799 49.5589 6.04699 49.5589 4.99999C49.5589 3.95299 49.2244 3.09199 48.5584 2.41699C47.8939 1.74199 47.0779 1.40599 46.1134 1.40599C45.1489 1.40599 44.3344 1.74349 43.6684 2.41699C43.0039 3.09199 42.6694 3.95299 42.6694 4.99999C42.6694 6.04699 43.0039 6.90799 43.6684 7.58299Z" fill="#616161"/>
<path d="M52.3624 9.5V0.5H53.7694L58.1434 7.5005H58.1929L58.1434 5.7665V0.5H59.2999V9.5H58.0924L53.5159 2.159H53.4664L53.5159 3.893V9.5H52.3624Z" fill="#616161"/>
<path d="M10.1271 5.36442C10.1271 6.62142 9.75507 7.62192 9.00957 8.36892C8.16357 9.25692 7.05958 9.70092 5.70358 9.70092C4.40458 9.70092 3.29908 9.25091 2.39158 8.35091C1.48258 7.44941 1.02808 6.33341 1.02808 5.00141C1.02808 3.66791 1.48258 2.55191 2.39158 1.65191C3.29908 0.750415 4.40458 0.300416 5.70358 0.300416C6.34858 0.300416 6.96508 0.426415 7.55008 0.676915C8.13658 0.928915 8.60608 1.26342 8.95708 1.68192L8.16657 2.47392C7.57107 1.76142 6.75057 1.40592 5.70207 1.40592C4.75407 1.40592 3.93507 1.73892 3.24357 2.40492C2.55207 3.07092 2.20708 3.93642 2.20708 4.99992C2.20708 6.06342 2.55207 6.92891 3.24357 7.59491C3.93507 8.26091 4.75407 8.59391 5.70207 8.59391C6.70707 8.59391 7.54558 8.25941 8.21608 7.58891C8.65108 7.15241 8.90307 6.54491 8.97057 5.76641H5.70207V4.68492H10.0626C10.1076 4.92042 10.1271 5.14692 10.1271 5.36442Z" stroke="#212121" stroke-width="0.2" stroke-miterlimit="10"/>
<path d="M17.0422 1.6055H12.9442V4.4585H16.6402V5.54H12.9442V8.393H17.0422V9.5H11.7877V0.5H17.0422V1.6055Z" stroke="#212121" stroke-width="0.2" stroke-miterlimit="10"/>
<path d="M21.9185 9.5H20.7621V1.6055H18.248V0.5H24.4325V1.6055H21.9185V9.5Z" stroke="#212121" stroke-width="0.2" stroke-miterlimit="10"/>
<path d="M28.907 9.5V0.5H30.0635V9.5H28.907Z" stroke="#212121" stroke-width="0.2" stroke-miterlimit="10"/>
<path d="M35.1922 9.5H34.0357V1.6055H31.5217V0.5H37.7062V1.6055H35.1922V9.5Z" stroke="#212121" stroke-width="0.2" stroke-miterlimit="10"/>
<path d="M49.4134 8.33749C48.5284 9.24649 47.4289 9.70099 46.1134 9.70099C44.7979 9.70099 43.6984 9.24649 42.8149 8.33749C41.9299 7.42849 41.4889 6.31549 41.4889 4.99999C41.4889 3.68449 41.9299 2.57149 42.8149 1.66249C43.6984 0.753485 44.7979 0.297485 46.1134 0.297485C47.4214 0.297485 48.5194 0.754985 49.4074 1.66848C50.2954 2.58198 50.7394 3.69199 50.7394 4.99999C50.7394 6.31549 50.2969 7.42849 49.4134 8.33749ZM43.6684 7.58299C44.3344 8.25799 45.1489 8.59399 46.1134 8.59399C47.0779 8.59399 47.8939 8.25649 48.5584 7.58299C49.2244 6.90799 49.5589 6.04699 49.5589 4.99999C49.5589 3.95299 49.2244 3.09199 48.5584 2.41699C47.8939 1.74199 47.0779 1.40599 46.1134 1.40599C45.1489 1.40599 44.3344 1.74349 43.6684 2.41699C43.0039 3.09199 42.6694 3.95299 42.6694 4.99999C42.6694 6.04699 43.0039 6.90799 43.6684 7.58299Z" stroke="#212121" stroke-width="0.2" stroke-miterlimit="10"/>
<path d="M52.3624 9.5V0.5H53.7694L58.1434 7.5005H58.1929L58.1434 5.7665V0.5H59.2999V9.5H58.0924L53.5159 2.159H53.4664L53.5159 3.893V9.5H52.3624Z" stroke="#212121" stroke-width="0.2" stroke-miterlimit="10"/>
</svg>
