<svg width="283" height="140" viewBox="0 0 283 140" fill="none" xmlns="http://www.w3.org/2000/svg">
<g filter="url(#filter0_dd_401_1830)">
<rect x="40" y="20" width="202.5" height="60" rx="5" fill="white"/>
<path d="M142.204 52.6267C138.676 52.6267 135.8 55.3102 135.8 59.0062C135.8 62.6797 138.676 65.3857 142.204 65.3857C145.733 65.3857 148.609 62.6797 148.609 59.0062C148.607 55.3102 145.732 52.6267 142.204 52.6267ZM142.204 62.8747C140.27 62.8747 138.604 61.2802 138.604 59.0077C138.604 56.7112 140.272 55.1407 142.204 55.1407C144.137 55.1407 145.804 56.7112 145.804 59.0077C145.804 61.2787 144.137 62.8747 142.204 62.8747ZM128.233 52.6267C124.705 52.6267 121.829 55.3102 121.829 59.0062C121.829 62.6797 124.705 65.3857 128.233 65.3857C131.762 65.3857 134.638 62.6797 134.638 59.0062C134.638 55.3102 131.762 52.6267 128.233 52.6267ZM128.233 62.8747C126.299 62.8747 124.633 61.2802 124.633 59.0077C124.633 56.7112 126.301 55.1407 128.233 55.1407C130.166 55.1407 131.833 56.7112 131.833 59.0077C131.834 61.2787 130.166 62.8747 128.233 62.8747ZM111.616 54.5857V57.2917H118.093C117.899 58.8142 117.392 59.9257 116.618 60.6982C115.676 61.6402 114.202 62.6797 111.616 62.6797C107.629 62.6797 104.512 59.4652 104.512 55.4782C104.512 51.4912 107.629 48.2767 111.616 48.2767C113.767 48.2767 115.337 49.1227 116.497 50.2102L118.406 48.3007C116.786 46.7542 114.637 45.5707 111.616 45.5707C106.154 45.5707 101.563 50.0167 101.563 55.4782C101.563 60.9397 106.154 65.3857 111.616 65.3857C114.563 65.3857 116.788 64.4182 118.526 62.6062C120.314 60.8182 120.871 58.3042 120.871 56.2747C120.871 55.6477 120.823 55.0672 120.725 54.5842H111.616V54.5857ZM179.578 56.6872C179.047 55.2622 177.427 52.6267 174.116 52.6267C170.83 52.6267 168.098 55.2127 168.098 59.0062C168.098 62.5822 170.806 65.3857 174.43 65.3857C177.353 65.3857 179.045 63.5977 179.747 62.5582L177.572 61.1077C176.848 62.1712 175.856 62.8717 174.43 62.8717C173.005 62.8717 171.989 62.2192 171.337 60.9382L179.867 57.4102L179.578 56.6872ZM170.878 58.8142C170.806 56.3482 172.787 55.0927 174.214 55.0927C175.325 55.0927 176.267 55.6492 176.582 56.4457L170.878 58.8142ZM163.943 65.0002H166.745V46.2487H163.943V65.0002ZM159.35 54.0532H159.254C158.626 53.3032 157.417 52.6267 155.896 52.6267C152.705 52.6267 149.782 55.4302 149.782 59.0317C149.782 62.6077 152.705 65.3872 155.896 65.3872C157.418 65.3872 158.626 64.7107 159.254 63.9382H159.35V64.8562C159.35 67.2967 158.045 68.6017 155.944 68.6017C154.228 68.6017 153.164 67.3702 152.729 66.3307L150.289 67.3462C150.989 69.0367 152.849 71.1157 155.944 71.1157C159.23 71.1157 162.01 69.1822 162.01 64.4692V53.0152H159.352V54.0532H159.35ZM156.137 62.8747C154.204 62.8747 152.585 61.2547 152.585 59.0317C152.585 56.7832 154.204 55.1407 156.137 55.1407C158.045 55.1407 159.544 56.7832 159.544 59.0317C159.544 61.2547 158.045 62.8747 156.137 62.8747ZM192.709 46.2487H186.002V65.0002H188.8V57.8962H192.707C195.809 57.8962 198.86 55.6507 198.86 52.0732C198.86 48.4957 195.811 46.2487 192.709 46.2487ZM192.781 55.2862H188.8V48.8587H192.781C194.873 48.8587 196.061 50.5912 196.061 52.0732C196.061 53.5252 194.873 55.2862 192.781 55.2862ZM210.079 52.5937C208.052 52.5937 205.954 53.4862 205.085 55.4647L207.569 56.5012C208.1 55.4647 209.09 55.1257 210.127 55.1257C211.574 55.1257 213.046 55.9942 213.07 57.5377V57.7312C212.563 57.4417 211.477 57.0082 210.151 57.0082C207.473 57.0082 204.746 58.4797 204.746 61.2292C204.746 63.7387 206.942 65.3542 209.402 65.3542C211.283 65.3542 212.321 64.5097 212.972 63.5197H213.068V64.9672H215.771V57.7777C215.773 54.4507 213.286 52.5937 210.079 52.5937ZM209.74 62.8702C208.825 62.8702 207.545 62.4112 207.545 61.2772C207.545 59.8297 209.138 59.2747 210.514 59.2747C211.742 59.2747 212.323 59.5402 213.07 59.9017C212.852 61.6402 211.357 62.8702 209.74 62.8702ZM225.614 53.0032L222.406 61.1332H222.31L218.98 53.0032H215.965L220.958 64.3657L218.111 70.6867H221.03L228.727 53.0032H225.614ZM200.405 65.0002H203.203V46.2487H200.405V65.0002Z" fill="#212121"/>
<path d="M111.127 35.3644C111.127 36.6214 110.755 37.6219 110.01 38.3689C109.164 39.2569 108.06 39.7009 106.704 39.7009C105.405 39.7009 104.299 39.2509 103.392 38.3509C102.483 37.4494 102.028 36.3334 102.028 35.0014C102.028 33.6679 102.483 32.5519 103.392 31.6519C104.299 30.7504 105.405 30.3004 106.704 30.3004C107.349 30.3004 107.965 30.4264 108.55 30.6769C109.137 30.9289 109.606 31.2634 109.957 31.6819L109.167 32.4739C108.571 31.7614 107.751 31.4059 106.702 31.4059C105.754 31.4059 104.935 31.7389 104.244 32.4049C103.552 33.0709 103.207 33.9364 103.207 34.9999C103.207 36.0634 103.552 36.9289 104.244 37.5949C104.935 38.2609 105.754 38.5939 106.702 38.5939C107.707 38.5939 108.546 38.2594 109.216 37.5889C109.651 37.1524 109.903 36.5449 109.971 35.7664H106.702V34.6849H111.063C111.108 34.9204 111.127 35.1469 111.127 35.3644Z" fill="#616161"/>
<path d="M118.042 31.6055H113.944V34.4585H117.64V35.54H113.944V38.393H118.042V39.5H112.788V30.5H118.042V31.6055Z" fill="#616161"/>
<path d="M122.919 39.5H121.762V31.6055H119.248V30.5H125.433V31.6055H122.919V39.5Z" fill="#616161"/>
<path d="M129.907 39.5V30.5H131.063V39.5H129.907Z" fill="#616161"/>
<path d="M136.192 39.5H135.036V31.6055H132.522V30.5H138.706V31.6055H136.192V39.5Z" fill="#616161"/>
<path d="M150.413 38.3375C149.528 39.2465 148.429 39.701 147.113 39.701C145.798 39.701 144.698 39.2465 143.815 38.3375C142.93 37.4285 142.489 36.3155 142.489 35C142.489 33.6845 142.93 32.5715 143.815 31.6625C144.698 30.7535 145.798 30.2975 147.113 30.2975C148.421 30.2975 149.519 30.755 150.407 31.6685C151.295 32.582 151.739 33.692 151.739 35C151.739 36.3155 151.297 37.4285 150.413 38.3375ZM144.668 37.583C145.334 38.258 146.149 38.594 147.113 38.594C148.078 38.594 148.894 38.2565 149.558 37.583C150.224 36.908 150.559 36.047 150.559 35C150.559 33.953 150.224 33.092 149.558 32.417C148.894 31.742 148.078 31.406 147.113 31.406C146.149 31.406 145.334 31.7435 144.668 32.417C144.004 33.092 143.669 33.953 143.669 35C143.669 36.047 144.004 36.908 144.668 37.583Z" fill="#616161"/>
<path d="M153.362 39.5V30.5H154.769L159.143 37.5005H159.193L159.143 35.7665V30.5H160.3V39.5H159.092L154.516 32.159H154.466L154.516 33.893V39.5H153.362Z" fill="#616161"/>
<path d="M111.127 35.3644C111.127 36.6214 110.755 37.6219 110.01 38.3689C109.164 39.2569 108.06 39.7009 106.704 39.7009C105.405 39.7009 104.299 39.2509 103.392 38.3509C102.483 37.4494 102.028 36.3334 102.028 35.0014C102.028 33.6679 102.483 32.5519 103.392 31.6519C104.299 30.7504 105.405 30.3004 106.704 30.3004C107.349 30.3004 107.965 30.4264 108.55 30.6769C109.137 30.9289 109.606 31.2634 109.957 31.6819L109.167 32.4739C108.571 31.7614 107.751 31.4059 106.702 31.4059C105.754 31.4059 104.935 31.7389 104.244 32.4049C103.552 33.0709 103.207 33.9364 103.207 34.9999C103.207 36.0634 103.552 36.9289 104.244 37.5949C104.935 38.2609 105.754 38.5939 106.702 38.5939C107.707 38.5939 108.546 38.2594 109.216 37.5889C109.651 37.1524 109.903 36.5449 109.971 35.7664H106.702V34.6849H111.063C111.108 34.9204 111.127 35.1469 111.127 35.3644Z" stroke="#212121" stroke-width="0.2" stroke-miterlimit="10"/>
<path d="M118.042 31.6055H113.944V34.4585H117.64V35.54H113.944V38.393H118.042V39.5H112.788V30.5H118.042V31.6055Z" stroke="#212121" stroke-width="0.2" stroke-miterlimit="10"/>
<path d="M122.919 39.5H121.762V31.6055H119.248V30.5H125.433V31.6055H122.919V39.5Z" stroke="#212121" stroke-width="0.2" stroke-miterlimit="10"/>
<path d="M129.907 39.5V30.5H131.063V39.5H129.907Z" stroke="#212121" stroke-width="0.2" stroke-miterlimit="10"/>
<path d="M136.192 39.5H135.036V31.6055H132.522V30.5H138.706V31.6055H136.192V39.5Z" stroke="#212121" stroke-width="0.2" stroke-miterlimit="10"/>
<path d="M150.413 38.3375C149.528 39.2465 148.429 39.701 147.113 39.701C145.798 39.701 144.698 39.2465 143.815 38.3375C142.93 37.4285 142.489 36.3155 142.489 35C142.489 33.6845 142.93 32.5715 143.815 31.6625C144.698 30.7535 145.798 30.2975 147.113 30.2975C148.421 30.2975 149.519 30.755 150.407 31.6685C151.295 32.582 151.739 33.692 151.739 35C151.739 36.3155 151.297 37.4285 150.413 38.3375ZM144.668 37.583C145.334 38.258 146.149 38.594 147.113 38.594C148.078 38.594 148.894 38.2565 149.558 37.583C150.224 36.908 150.559 36.047 150.559 35C150.559 33.953 150.224 33.092 149.558 32.417C148.894 31.742 148.078 31.406 147.113 31.406C146.149 31.406 145.334 31.7435 144.668 32.417C144.004 33.092 143.669 33.953 143.669 35C143.669 36.047 144.004 36.908 144.668 37.583Z" stroke="#212121" stroke-width="0.2" stroke-miterlimit="10"/>
<path d="M153.362 39.5V30.5H154.769L159.143 37.5005H159.193L159.143 35.7665V30.5H160.3V39.5H159.092L154.516 32.159H154.466L154.516 33.893V39.5H153.362Z" stroke="#212121" stroke-width="0.2" stroke-miterlimit="10"/>
<path fill-rule="evenodd" clip-rule="evenodd" d="M55.3531 31.7148C55.1015 32.1531 54.9595 32.7256 54.9595 33.4145V66.5885C54.9595 67.279 55.1017 67.8512 55.3536 68.2893L73.6393 50.001L55.3531 31.7148ZM56.044 69.0131C56.7367 69.435 57.7042 69.394 58.771 68.789L80.2321 56.5938L74.3464 50.7081L56.044 69.0131ZM81.1348 56.0823L88.0225 52.169C90.118 50.9765 90.118 49.028 88.0225 47.837L81.1319 43.9216L75.0534 50.0009L81.1348 56.0823ZM80.2301 43.4092L58.771 31.2155C57.7042 30.6093 56.7366 30.5692 56.0439 30.9914L74.3463 49.2938L80.2301 43.4092Z" fill="#F17228"/>
</g>
<defs>
<filter id="filter0_dd_401_1830" x="0" y="0" width="282.5" height="140" filterUnits="userSpaceOnUse" color-interpolation-filters="sRGB">
<feFlood flood-opacity="0" result="BackgroundImageFix"/>
<feColorMatrix in="SourceAlpha" type="matrix" values="0 0 0 0 0 0 0 0 0 0 0 0 0 0 0 0 0 0 127 0" result="hardAlpha"/>
<feOffset dy="20"/>
<feGaussianBlur stdDeviation="20"/>
<feColorMatrix type="matrix" values="0 0 0 0 1 0 0 0 0 0.680498 0 0 0 0 0 0 0 0 0.29 0"/>
<feBlend mode="normal" in2="BackgroundImageFix" result="effect1_dropShadow_401_1830"/>
<feColorMatrix in="SourceAlpha" type="matrix" values="0 0 0 0 0 0 0 0 0 0 0 0 0 0 0 0 0 0 127 0" result="hardAlpha"/>
<feOffset dy="5"/>
<feGaussianBlur stdDeviation="5"/>
<feColorMatrix type="matrix" values="0 0 0 0 1 0 0 0 0 0.680498 0 0 0 0 0 0 0 0 0.26 0"/>
<feBlend mode="normal" in2="effect1_dropShadow_401_1830" result="effect2_dropShadow_401_1830"/>
<feBlend mode="normal" in="SourceGraphic" in2="effect2_dropShadow_401_1830" result="shape"/>
</filter>
</defs>
</svg>
