<svg width="128" height="27" viewBox="0 0 128 27" fill="none" xmlns="http://www.w3.org/2000/svg">
<path d="M41.204 7.62668C37.676 7.62668 34.8005 10.3102 34.8005 14.0062C34.8005 17.6797 37.676 20.3857 41.204 20.3857C44.7335 20.3857 47.609 17.6797 47.609 14.0062C47.6075 10.3102 44.732 7.62668 41.204 7.62668ZM41.204 17.8747C39.2705 17.8747 37.604 16.2802 37.604 14.0077C37.604 11.7112 39.272 10.1407 41.204 10.1407C43.1375 10.1407 44.804 11.7112 44.804 14.0077C44.804 16.2787 43.1375 17.8747 41.204 17.8747ZM27.233 7.62668C23.705 7.62668 20.8295 10.3102 20.8295 14.0062C20.8295 17.6797 23.705 20.3857 27.233 20.3857C30.7625 20.3857 33.638 17.6797 33.638 14.0062C33.638 10.3102 30.7625 7.62668 27.233 7.62668ZM27.233 17.8747C25.2995 17.8747 23.633 16.2802 23.633 14.0077C23.633 11.7112 25.301 10.1407 27.233 10.1407C29.1665 10.1407 30.833 11.7112 30.833 14.0077C30.8345 16.2787 29.1665 17.8747 27.233 17.8747ZM10.616 9.58568V12.2917H17.093C16.8995 13.8142 16.3925 14.9257 15.6185 15.6982C14.6765 16.6402 13.202 17.6797 10.616 17.6797C6.62899 17.6797 3.51199 14.4652 3.51199 10.4782C3.51199 6.49118 6.62899 3.27668 10.616 3.27668C12.767 3.27668 14.3375 4.12268 15.497 5.21018L17.4065 3.30068C15.7865 1.75418 13.637 0.57068 10.616 0.57068C5.15449 0.57068 0.562988 5.01668 0.562988 10.4782C0.562988 15.9397 5.15449 20.3857 10.616 20.3857C13.5635 20.3857 15.788 19.4182 17.5265 17.6062C19.3145 15.8182 19.871 13.3042 19.871 11.2747C19.871 10.6477 19.823 10.0672 19.7255 9.58418H10.616V9.58568ZM78.578 11.6872C78.047 10.2622 76.427 7.62668 73.1165 7.62668C69.83 7.62668 67.0985 10.2127 67.0985 14.0062C67.0985 17.5822 69.806 20.3857 73.43 20.3857C76.3535 20.3857 78.0455 18.5977 78.7475 17.5582L76.5725 16.1077C75.848 17.1712 74.8565 17.8717 73.43 17.8717C72.005 17.8717 70.9895 17.2192 70.337 15.9382L78.8675 12.4102L78.578 11.6872ZM69.878 13.8142C69.806 11.3482 71.7875 10.0927 73.214 10.0927C74.3255 10.0927 75.2675 10.6492 75.5825 11.4457L69.878 13.8142ZM62.9435 20.0002H65.7455V1.24868H62.9435V20.0002ZM58.3505 9.05318H58.2545C57.626 8.30318 56.417 7.62668 54.896 7.62668C51.7055 7.62668 48.782 10.4302 48.782 14.0317C48.782 17.6077 51.7055 20.3872 54.896 20.3872C56.4185 20.3872 57.626 19.7107 58.2545 18.9382H58.3505V19.8562C58.3505 22.2967 57.0455 23.6017 54.944 23.6017C53.228 23.6017 52.1645 22.3702 51.7295 21.3307L49.289 22.3462C49.9895 24.0367 51.8495 26.1157 54.944 26.1157C58.2305 26.1157 61.01 24.1822 61.01 19.4692V8.01518H58.352V9.05318H58.3505ZM55.1375 17.8747C53.204 17.8747 51.5855 16.2547 51.5855 14.0317C51.5855 11.7832 53.204 10.1407 55.1375 10.1407C57.0455 10.1407 58.544 11.7832 58.544 14.0317C58.544 16.2547 57.0455 17.8747 55.1375 17.8747ZM91.709 1.24868H85.0025V20.0002H87.8V12.8962H91.7075C94.8095 12.8962 97.8605 10.6507 97.8605 7.07318C97.8605 3.49568 94.811 1.24868 91.709 1.24868ZM91.781 10.2862H87.8V3.85868H91.781C93.8735 3.85868 95.0615 5.59118 95.0615 7.07318C95.0615 8.52518 93.8735 10.2862 91.781 10.2862ZM109.079 7.59368C107.052 7.59368 104.954 8.48618 104.085 10.4647L106.569 11.5012C107.1 10.4647 108.09 10.1257 109.127 10.1257C110.574 10.1257 112.046 10.9942 112.07 12.5377V12.7312C111.563 12.4417 110.477 12.0082 109.151 12.0082C106.473 12.0082 103.746 13.4797 103.746 16.2292C103.746 18.7387 105.942 20.3542 108.402 20.3542C110.283 20.3542 111.321 19.5097 111.972 18.5197H112.068V19.9672H114.771V12.7777C114.773 9.45068 112.286 7.59368 109.079 7.59368ZM108.74 17.8702C107.825 17.8702 106.545 17.4112 106.545 16.2772C106.545 14.8297 108.138 14.2747 109.514 14.2747C110.742 14.2747 111.323 14.5402 112.07 14.9017C111.852 16.6402 110.357 17.8702 108.74 17.8702ZM124.614 8.00318L121.406 16.1332H121.31L117.98 8.00318H114.965L119.958 19.3657L117.111 25.6867H120.03L127.727 8.00318H124.614ZM99.4055 20.0002H102.203V1.24868H99.4055V20.0002Z" fill="#212121"/>
</svg>
