<svg width="111" height="16" viewBox="0 0 111 16" fill="none" xmlns="http://www.w3.org/2000/svg">
<path d="M5.17432 12L1.57812 2.52246H1.51953C1.53906 2.72266 1.55615 2.9668 1.5708 3.25488C1.58545 3.54297 1.59766 3.85791 1.60742 4.19971C1.61719 4.53662 1.62207 4.88086 1.62207 5.23242V12H0.464844V1.29199H2.31055L5.70166 10.1982H5.75293L9.19531 1.29199H11.0264V12H9.7959V5.14453C9.7959 4.82715 9.80078 4.50977 9.81055 4.19238C9.82031 3.87012 9.83252 3.56738 9.84717 3.28418C9.86182 2.99609 9.87646 2.74707 9.89111 2.53711H9.83252L6.19238 12H5.17432ZM16.7759 3.84082C17.7329 3.84082 18.4434 4.05566 18.9072 4.48535C19.3711 4.91504 19.603 5.60107 19.603 6.54346V12H18.7168L18.4824 10.8135H18.4238C18.1992 11.1064 17.9648 11.353 17.7207 11.5532C17.4766 11.7485 17.1934 11.8975 16.8711 12C16.5537 12.0977 16.1631 12.1465 15.6992 12.1465C15.2109 12.1465 14.7764 12.061 14.3955 11.8901C14.0195 11.7192 13.7217 11.4604 13.502 11.1138C13.2871 10.7671 13.1797 10.3276 13.1797 9.79541C13.1797 8.99463 13.4971 8.37939 14.1318 7.94971C14.7666 7.52002 15.7334 7.28564 17.0322 7.24658L18.4165 7.18799V6.69727C18.4165 6.00391 18.2676 5.51807 17.9697 5.23975C17.6719 4.96143 17.252 4.82227 16.71 4.82227C16.29 4.82227 15.8896 4.8833 15.5088 5.00537C15.1279 5.12744 14.7666 5.27148 14.4248 5.4375L14.0513 4.51465C14.4126 4.3291 14.8276 4.17041 15.2964 4.03857C15.7651 3.90674 16.2583 3.84082 16.7759 3.84082ZM18.4019 8.04492L17.1787 8.09619C16.1777 8.13525 15.4722 8.29883 15.062 8.58691C14.6519 8.875 14.4468 9.28271 14.4468 9.81006C14.4468 10.269 14.5859 10.6084 14.8643 10.8281C15.1426 11.0479 15.5112 11.1577 15.9702 11.1577C16.6831 11.1577 17.2666 10.96 17.7207 10.5645C18.1748 10.1689 18.4019 9.57568 18.4019 8.78467V8.04492ZM24.9644 12.1465C23.9487 12.1465 23.1431 11.7998 22.5474 11.1064C21.9565 10.4131 21.6611 9.38281 21.6611 8.01562C21.6611 6.63379 21.9639 5.59131 22.5693 4.88818C23.1748 4.18018 23.9805 3.82617 24.9863 3.82617C25.4111 3.82617 25.7822 3.88232 26.0996 3.99463C26.417 4.10693 26.6904 4.2583 26.9199 4.44873C27.1494 4.63428 27.3423 4.84668 27.4985 5.08594H27.5864C27.5669 4.93457 27.5474 4.72705 27.5278 4.46338C27.5083 4.19971 27.4985 3.98486 27.4985 3.81885V0.603516H28.7144V12H27.7329L27.5498 10.8574H27.4985C27.3472 11.0967 27.1543 11.314 26.9199 11.5093C26.6904 11.7046 26.4146 11.8608 26.0923 11.978C25.7749 12.0903 25.3989 12.1465 24.9644 12.1465ZM25.1548 11.1357C26.0142 11.1357 26.6221 10.8916 26.9785 10.4033C27.335 9.91504 27.5132 9.18994 27.5132 8.22803V8.0083C27.5132 6.98779 27.3423 6.2041 27.0005 5.65723C26.6636 5.11035 26.0483 4.83691 25.1548 4.83691C24.4077 4.83691 23.8486 5.125 23.4775 5.70117C23.1064 6.27246 22.9209 7.05371 22.9209 8.04492C22.9209 9.03125 23.104 9.79297 23.4702 10.3301C23.8413 10.8672 24.4028 11.1357 25.1548 11.1357ZM34.3833 3.82617C35.0669 3.82617 35.6528 3.97754 36.1411 4.28027C36.6294 4.58301 37.0029 5.00781 37.2617 5.55469C37.5205 6.09668 37.6499 6.73145 37.6499 7.45898V8.21338H32.1055C32.1201 9.15576 32.3545 9.87354 32.8086 10.3667C33.2627 10.8599 33.9023 11.1064 34.7275 11.1064C35.2354 11.1064 35.6846 11.0601 36.0752 10.9673C36.4658 10.8745 36.8711 10.7378 37.291 10.5571V11.6265C36.8857 11.8071 36.4829 11.939 36.0825 12.022C35.687 12.105 35.2183 12.1465 34.6763 12.1465C33.9048 12.1465 33.231 11.9902 32.6548 11.6777C32.0835 11.3604 31.6392 10.8965 31.3218 10.2861C31.0044 9.67578 30.8457 8.92871 30.8457 8.04492C30.8457 7.18066 30.9897 6.43359 31.2778 5.80371C31.5708 5.16895 31.981 4.68066 32.5083 4.33887C33.0405 3.99707 33.6655 3.82617 34.3833 3.82617ZM34.3687 4.82227C33.7192 4.82227 33.2017 5.03467 32.8159 5.45947C32.4302 5.88428 32.2007 6.47754 32.1274 7.23926H36.3755C36.3706 6.76074 36.2949 6.34082 36.1484 5.97949C36.0068 5.61328 35.7896 5.33008 35.4966 5.12988C35.2036 4.9248 34.8276 4.82227 34.3687 4.82227ZM50.145 11.9854L48.7168 7.3125C48.6533 7.1123 48.5923 6.91699 48.5337 6.72656C48.48 6.53125 48.4287 6.3457 48.3799 6.16992C48.3359 5.98926 48.2944 5.82324 48.2554 5.67188C48.2212 5.51562 48.1919 5.38135 48.1675 5.26904H48.1162C48.0967 5.38135 48.0698 5.51562 48.0356 5.67188C48.0015 5.82324 47.96 5.98926 47.9111 6.16992C47.8672 6.35059 47.8184 6.54102 47.7646 6.74121C47.7109 6.93652 47.6499 7.13428 47.5815 7.33447L46.0874 11.9854H44.7178L42.5059 3.95801H43.7656L44.9229 8.38916C45.001 8.68213 45.0742 8.97266 45.1426 9.26074C45.2158 9.54395 45.2769 9.8125 45.3257 10.0664C45.3794 10.3154 45.4185 10.5327 45.4429 10.7183H45.5015C45.5308 10.5962 45.5625 10.4497 45.5967 10.2788C45.6357 10.1079 45.6772 9.92725 45.7212 9.73682C45.77 9.5415 45.8213 9.34863 45.875 9.1582C45.9287 8.96289 45.9824 8.77979 46.0361 8.60889L47.5156 3.95801H48.8267L50.2549 8.60156C50.3281 8.83594 50.3989 9.08008 50.4673 9.33398C50.5405 9.58789 50.6064 9.83447 50.665 10.0737C50.7236 10.3081 50.7651 10.5181 50.7896 10.7036H50.8481C50.8677 10.5376 50.9043 10.3325 50.958 10.0884C51.0117 9.84424 51.0728 9.57568 51.1411 9.28271C51.2144 8.98975 51.29 8.69189 51.3682 8.38916L52.54 3.95801H53.7778L51.5586 11.9854H50.145ZM56.4585 3.97266V12H55.2427V3.97266H56.4585ZM55.8652 0.969727C56.0654 0.969727 56.2363 1.03564 56.3779 1.16748C56.5244 1.29443 56.5977 1.49463 56.5977 1.76807C56.5977 2.03662 56.5244 2.23682 56.3779 2.36865C56.2363 2.50049 56.0654 2.56641 55.8652 2.56641C55.6553 2.56641 55.4795 2.50049 55.3379 2.36865C55.2012 2.23682 55.1328 2.03662 55.1328 1.76807C55.1328 1.49463 55.2012 1.29443 55.3379 1.16748C55.4795 1.03564 55.6553 0.969727 55.8652 0.969727ZM61.6294 11.1504C61.8296 11.1504 62.0347 11.1333 62.2446 11.0991C62.4546 11.0649 62.6255 11.0234 62.7573 10.9746V11.9194C62.6157 11.9829 62.418 12.0366 62.1641 12.0806C61.915 12.1245 61.6709 12.1465 61.4316 12.1465C61.0068 12.1465 60.6211 12.0732 60.2744 11.9268C59.9277 11.7754 59.6494 11.5215 59.4395 11.165C59.2344 10.8086 59.1318 10.3154 59.1318 9.68555V4.9248H57.9893V4.33154L59.1392 3.85547L59.6226 2.1123H60.355V3.97266H62.7061V4.9248H60.355V9.64893C60.355 10.1519 60.4697 10.5278 60.6992 10.7769C60.9336 11.0259 61.2437 11.1504 61.6294 11.1504ZM65.5991 0.603516V4.00928C65.5991 4.20459 65.5942 4.40234 65.5845 4.60254C65.5747 4.79785 65.5576 4.97852 65.5332 5.14453H65.6138C65.7798 4.86133 65.9897 4.62451 66.2437 4.43408C66.5024 4.23877 66.7954 4.09229 67.1226 3.99463C67.4497 3.89209 67.7964 3.84082 68.1626 3.84082C68.8071 3.84082 69.3442 3.94336 69.7739 4.14844C70.2085 4.35352 70.5332 4.6709 70.748 5.10059C70.9678 5.53027 71.0776 6.08691 71.0776 6.77051V12H69.8765V6.85107C69.8765 6.18213 69.7227 5.68164 69.415 5.34961C69.1123 5.01758 68.646 4.85156 68.0161 4.85156C67.4204 4.85156 66.9443 4.96631 66.5879 5.1958C66.2363 5.42041 65.9824 5.75244 65.8262 6.19189C65.6748 6.63135 65.5991 7.16846 65.5991 7.80322V12H64.3833V0.603516H65.5991ZM96.2163 0.603516V3.45264C96.2163 3.77979 96.2065 4.09717 96.187 4.40479C96.1724 4.7124 96.1602 4.95166 96.1504 5.12256H96.2163C96.436 4.76123 96.7534 4.45605 97.1685 4.20703C97.5835 3.95801 98.1133 3.8335 98.7578 3.8335C99.7637 3.8335 100.564 4.18262 101.16 4.88086C101.761 5.57422 102.061 6.60693 102.061 7.979C102.061 8.88232 101.924 9.64404 101.651 10.2642C101.377 10.8843 100.992 11.353 100.494 11.6704C99.9956 11.9878 99.4072 12.1465 98.7285 12.1465C98.0938 12.1465 97.5713 12.0293 97.1611 11.7949C96.7559 11.5557 96.4434 11.2651 96.2236 10.9233H96.1284L95.8794 12H95.0005V0.603516H96.2163ZM98.5601 4.85156C97.979 4.85156 97.5176 4.96631 97.1758 5.1958C96.834 5.42041 96.5874 5.76221 96.436 6.22119C96.2896 6.67529 96.2163 7.25146 96.2163 7.94971V8.01562C96.2163 9.02637 96.3848 9.80029 96.7217 10.3374C97.0586 10.8696 97.6714 11.1357 98.5601 11.1357C99.3071 11.1357 99.8662 10.8623 100.237 10.3154C100.613 9.76855 100.801 8.9873 100.801 7.97168C100.801 6.93652 100.616 6.15771 100.245 5.63525C99.8784 5.11279 99.3169 4.85156 98.5601 4.85156ZM102.918 3.97266H104.222L105.994 8.63086C106.097 8.9043 106.192 9.16797 106.28 9.42188C106.368 9.6709 106.446 9.91016 106.514 10.1396C106.583 10.3691 106.636 10.5913 106.675 10.8062H106.727C106.795 10.562 106.893 10.2422 107.02 9.84668C107.146 9.44629 107.283 9.03857 107.43 8.62354L109.107 3.97266H110.418L106.924 13.1792C106.739 13.6724 106.521 14.1021 106.272 14.4683C106.028 14.8345 105.73 15.1152 105.379 15.3105C105.027 15.5107 104.603 15.6108 104.104 15.6108C103.875 15.6108 103.672 15.5962 103.497 15.5669C103.321 15.5425 103.169 15.5132 103.042 15.479V14.5049C103.15 14.5293 103.279 14.5513 103.431 14.5708C103.587 14.5903 103.748 14.6001 103.914 14.6001C104.217 14.6001 104.478 14.5415 104.698 14.4243C104.922 14.312 105.115 14.146 105.276 13.9263C105.438 13.7065 105.577 13.4453 105.694 13.1426L106.133 12.0146L102.918 3.97266Z" fill="#F5F5F5"/>
<path d="M87.3711 2.22461C85.9746 1.03125 83.918 1.25977 82.623 2.58008L82.1406 3.08789L81.6328 2.58008C80.3633 1.25977 78.2812 1.03125 76.8848 2.22461C75.2852 3.5957 75.209 6.0332 76.6309 7.50586L81.5566 12.584C81.8613 12.9141 82.3945 12.9141 82.6992 12.584L87.625 7.50586C89.0469 6.0332 88.9707 3.5957 87.3711 2.22461Z" fill="#FDBC30"/>
</svg>
