<svg width="26" height="18" viewBox="0 0 26 18" fill="none" xmlns="http://www.w3.org/2000/svg">
<path d="M18 1.25C13.7188 1.25 10.25 4.75 10.25 9C10.25 13.2812 13.7188 16.75 18 16.75C22.25 16.75 25.75 13.2812 25.75 9C25.75 4.75 22.25 1.25 18 1.25ZM18 15.25C14.5312 15.25 11.75 12.4688 11.75 9C11.75 5.5625 14.5312 2.75 18 2.75C21.4375 2.75 24.25 5.5625 24.25 9C24.25 12.4688 21.4375 15.25 18 15.25ZM21.3438 12.0938C21.4062 12.0312 21.4375 11.9375 21.4375 11.8438C21.4375 11.75 21.4062 11.6875 21.375 11.625L20.75 10.7812C20.625 10.5938 20.375 10.5625 20.1875 10.7188C19.9062 10.9688 19.1562 11.5625 18.1562 11.5625C16.5312 11.5625 15.6875 10.25 15.6875 8.96875C15.6875 7.5625 16.625 6.4375 18.125 6.4375C19.0625 6.4375 19.7812 6.9375 20.0625 7.15625C20.2188 7.28125 20.5 7.25 20.5938 7.0625L21.1875 6.1875C21.2188 6.125 21.25 6.0625 21.25 5.96875C21.25 5.875 21.1875 5.78125 21.125 5.71875C20.8438 5.4375 19.8125 4.625 18.0625 4.625C15.5938 4.625 13.6875 6.5 13.6875 8.96875C13.6875 11.4688 15.5 13.4062 18.0938 13.4062C19.9062 13.4062 21.0312 12.4062 21.3438 12.0938Z" fill="#F5F5F5"/>
</svg>
